# Blender 3.5.1
# www.blender.org
mtllib cubesmall.mtl
o ori_grab_s1_cubesmall_inspect_1
v -0.025000 0.024997 0.025000
v 0.001855 0.024997 0.025000
v 0.002295 -0.024997 0.025000
v -0.025000 -0.024997 0.003052
v 0.008280 0.024997 -0.013176
v 0.015466 0.012592 -0.025000
v 0.015173 -0.024997 -0.002667
v 0.025000 0.024997 0.009985
v 0.025000 -0.024997 0.014648
v -0.004575 -0.024997 0.010738
v -0.006519 -0.024997 0.025000
v -0.025000 -0.024997 0.014868
v 0.022357 -0.024997 0.000371
v 0.025000 -0.022440 -0.013487
v 0.011753 -0.024997 0.007294
v 0.021309 -0.024997 0.010782
v -0.013511 -0.024997 -0.020833
v -0.013124 -0.024997 -0.001399
v 0.014025 0.020644 -0.025000
v -0.021873 -0.020716 0.025000
v 0.011453 -0.019780 0.025000
v 0.012429 -0.024997 -0.015085
v -0.003992 -0.024997 0.000661
v -0.025000 0.024997 -0.016357
v -0.015405 0.024997 0.025000
v 0.016162 0.024997 0.025000
v 0.025000 0.024997 0.018066
v 0.025000 0.024997 -0.016504
v 0.016309 0.024997 -0.025000
v 0.025000 0.008837 0.025000
v 0.025000 -0.024997 -0.016284
v 0.025000 -0.024997 -0.025000
v -0.016504 -0.024997 -0.025000
v 0.015308 -0.024997 -0.025000
v -0.025000 -0.024997 -0.015308
v -0.010628 -0.024997 0.007282
v -0.025000 -0.007886 0.007797
v 0.000584 -0.024997 -0.021115
v 0.014578 -0.024997 0.014530
v 0.019765 0.024997 -0.014966
v -0.015097 -0.024997 0.014340
v 0.014985 0.024997 -0.004762
v 0.025000 -0.004367 0.020334
v -0.021746 -0.024997 -0.001156
v 0.018996 -0.024997 0.020270
v -0.025000 0.024997 -0.025000
v 0.020576 -0.024997 -0.020498
v 0.009613 -0.024997 -0.006949
v -0.020432 -0.024997 -0.022086
v -0.021304 -0.024997 -0.011621
v -0.008868 0.004857 -0.025000
v -0.000114 0.005032 -0.025000
v -0.023038 -0.004768 0.025000
v -0.003519 0.005754 0.025000
v 0.021635 -0.008917 0.025000
v -0.017559 -0.024997 0.022670
v -0.025000 -0.002901 0.000202
v -0.010992 0.024997 0.005172
v -0.004708 0.024997 0.010603
v 0.025000 0.016045 -0.010796
v 0.004826 0.012291 -0.025000
v -0.025000 -0.009929 -0.003840
v 0.025000 0.005726 0.010843
v 0.025000 0.021136 0.005341
v 0.025000 -0.013559 -0.020518
v 0.016302 -0.020879 -0.025000
v 0.022692 -0.007168 -0.025000
v -0.001835 0.024997 -0.005859
v 0.025000 -0.022367 0.007439
v 0.003849 -0.024997 0.014344
v -0.001317 -0.024997 0.020104
v 0.021444 -0.024997 -0.010189
v -0.003748 -0.001634 -0.025000
v -0.021445 -0.024997 0.008974
v 0.025000 0.024997 0.025000
v 0.025000 -0.024997 0.005591
v 0.025000 -0.024997 -0.005908
v -0.025000 -0.024997 -0.025000
v -0.025000 0.013496 -0.004894
v -0.016499 0.003258 -0.025000
v -0.019897 0.010754 -0.025000
v -0.010223 0.015679 0.025000
v -0.025000 0.011139 -0.016473
v 0.005680 0.024997 -0.005110
v -0.022562 -0.006853 -0.025000
v 0.020040 0.007007 0.025000
v -0.025000 -0.003335 -0.011133
v -0.011125 0.024997 -0.004999
v 0.005620 0.024997 0.021574
v -0.005154 0.024997 -0.021083
v 0.025000 0.005351 0.019886
v 0.025000 0.010825 0.004051
v -0.023061 0.002956 -0.025000
v 0.012109 -0.003985 -0.025000
v -0.004962 0.011724 -0.025000
v 0.003700 -0.022185 0.025000
v -0.022752 0.002695 0.025000
v -0.016817 0.022700 0.025000
v -0.025000 -0.004226 0.020384
v 0.005259 -0.024997 -0.014783
v -0.025000 0.002638 0.009268
v -0.025000 -0.015038 -0.011553
v 0.009868 0.024997 0.011837
v 0.014036 0.024997 -0.019895
v 0.025000 0.012336 -0.019135
v 0.016119 -0.010453 -0.025000
v -0.014919 -0.023121 0.025000
v -0.020413 0.024997 0.003360
v 0.025000 -0.012061 0.013020
v 0.025000 -0.012987 0.001905
v -0.008419 -0.024997 0.020994
v -0.003152 -0.011423 -0.025000
v -0.002521 -0.008286 0.025000
v -0.015193 0.024997 0.020954
v 0.004645 0.024997 0.003810
v 0.022726 0.024997 -0.009021
v 0.025000 0.015524 0.021040
v 0.025000 -0.023474 0.015701
v 0.025000 0.013169 0.012005
v 0.025000 0.004545 -0.020710
v 0.009115 -0.024997 0.022247
v -0.006504 -0.024997 -0.019424
v -0.012139 -0.024997 -0.010899
v -0.016972 -0.021447 -0.025000
v -0.012389 0.012642 -0.025000
v 0.004783 -0.020039 -0.025000
v -0.012505 -0.016485 0.025000
v 0.001985 -0.015518 0.025000
v -0.018471 0.009954 0.025000
v -0.007452 0.022746 0.025000
v 0.007528 -0.002648 0.025000
v -0.025000 -0.022819 -0.016879
v -0.025000 -0.022449 0.009335
v -0.025000 -0.022370 0.018002
v 0.025000 0.003331 -0.013612
v 0.002547 0.016295 0.025000
v -0.001757 -0.024997 -0.008207
v 0.025000 -0.002233 0.012903
v 0.025000 0.004069 -0.001065
v 0.025000 0.011079 -0.004285
v -0.012235 -0.003493 -0.025000
v 0.013958 0.006129 -0.025000
v -0.025000 0.005049 0.002962
v -0.021859 0.024997 0.009852
v 0.011430 0.024997 0.001247
v 0.019439 0.024997 0.006215
v 0.025000 0.024997 -0.025000
v 0.025000 -0.003360 -0.020996
v 0.025000 0.021653 -0.006554
v 0.025000 0.021297 -0.016211
v -0.019505 0.019399 -0.025000
v 0.022053 -0.015611 -0.025000
v 0.004289 -0.004469 -0.025000
v 0.009734 0.020895 0.025000
v 0.022067 0.000507 0.025000
v -0.025000 0.016003 0.006746
v -0.025000 -0.010031 -0.016789
v -0.025000 -0.004859 -0.021947
v -0.025000 0.004432 -0.020816
v -0.025000 0.004905 -0.008413
v 0.007583 0.006886 0.025000
v -0.004178 0.024997 -0.014142
v 0.025000 -0.004968 -0.014595
v 0.023442 0.013180 -0.025000
v -0.009773 0.021761 -0.025000
v -0.022528 -0.024997 0.017326
v -0.025000 0.019114 -0.018600
v -0.025000 -0.006742 0.014323
v 0.025000 0.001579 0.005758
v 0.025000 -0.000918 -0.006715
v -0.004069 -0.021056 -0.025000
v 0.007738 0.003571 -0.025000
v -0.020868 0.024997 -0.014929
v -0.025000 0.024997 -0.008984
v -0.025000 0.024997 -0.001367
v -0.025000 0.024997 0.008667
v -0.025000 0.024997 0.018555
v -0.005811 0.024997 0.025000
v 0.009033 0.024997 0.025000
v -0.016602 0.024997 -0.025000
v -0.006519 0.024997 -0.025000
v 0.025000 0.024997 0.001367
v 0.001367 0.024997 -0.025000
v 0.008887 0.024997 -0.025000
v 0.025000 0.024997 -0.006519
v 0.025000 0.018064 0.025000
v 0.025000 -0.001391 0.025000
v 0.025000 -0.009813 0.025000
v 0.025000 -0.018064 0.025000
v 0.025000 -0.011135 -0.009883
v 0.025000 -0.013377 -0.025000
v 0.025000 -0.004833 -0.025000
v 0.025000 0.003222 -0.025000
v 0.025000 0.013377 -0.025000
v -0.025000 -0.024997 0.025000
v -0.015527 -0.024997 0.025000
v 0.012280 -0.024997 0.025000
v 0.025000 -0.024997 0.025000
v -0.009033 -0.024997 -0.025000
v -0.001367 -0.024997 -0.025000
v 0.005713 -0.024997 -0.025000
v -0.025000 -0.013377 -0.025000
v -0.025000 -0.004003 -0.025000
v -0.025000 0.004833 -0.025000
v -0.025000 0.013377 -0.025000
v -0.025000 -0.013377 0.025000
v -0.025000 -0.004003 0.025000
v 0.012106 -0.009415 0.025000
v -0.025000 0.004833 0.025000
v -0.025000 0.013377 0.025000
v -0.025000 -0.024997 -0.005664
v 0.025000 -0.005998 0.002718
v 0.004241 0.024997 -0.021366
v -0.002281 0.019743 -0.025000
v -0.022918 0.019515 0.025000
v 0.021239 0.017965 0.025000
v -0.025000 0.021950 0.003114
v -0.025000 -0.016649 0.012678
v 0.025000 0.022852 0.014882
v -0.025000 -0.016264 -0.021803
v -0.013748 0.024997 -0.019858
v -0.014854 -0.013104 -0.025000
v 0.015255 -0.000721 0.025000
v -0.025000 0.011688 0.020592
v 0.020880 0.003161 -0.025000
v 0.006218 0.022098 -0.025000
v -0.004389 -0.020425 0.025000
v -0.013540 -0.001701 0.025000
v -0.015105 -0.010218 0.025000
v -0.025000 0.011486 0.012030
v -0.025000 0.002472 0.019926
v -0.025000 -0.019609 0.002077
v -0.020871 0.024997 -0.003730
v -0.014288 0.024997 -0.011121
v -0.021531 0.024997 0.018316
v -0.014939 0.024997 0.014220
v -0.005230 0.024997 0.021972
v 0.000672 0.024997 0.015882
v 0.015263 0.024997 0.021833
v 0.025000 -0.013400 0.021257
v 0.025000 -0.019213 -0.003848
v 0.005674 -0.024997 0.000380
v -0.025000 -0.022093 -0.008313
v -0.025000 0.012587 -0.022919
v -0.025000 -0.014698 0.021224
v 0.007671 -0.024997 -0.023081
v -0.022876 -0.011955 0.025000
v -0.025000 0.021217 0.013188
v 0.022283 0.024997 -0.000800
v 0.021193 0.024997 0.015670
v 0.015106 0.013199 0.025000
v 0.009959 -0.014512 -0.025000
v 0.020080 -0.020637 0.025000
v -0.025000 0.022695 -0.008006
vn -1.0000 -0.0000 -0.0000
vn -0.0000 -0.0000 -1.0000
vn -0.0000 -1.0000 -0.0000
vn 1.0000 -0.0000 -0.0000
vn -0.0000 -0.0000 1.0000
vn -0.0000 1.0000 -0.0000
s 0
f 87//1 62//1 57//1
f 94//2 225//2 67//2
f 10//3 36//3 23//3
f 23//3 36//3 18//3
f 15//3 242//3 7//3
f 70//3 242//3 15//3
f 74//3 44//3 18//3
f 74//3 18//3 36//3
f 48//3 137//3 100//3
f 156//1 217//1 79//1
f 169//4 92//4 63//4
f 70//3 15//3 39//3
f 52//2 73//2 51//2
f 215//5 82//5 98//5
f 41//3 166//3 74//3
f 15//3 7//3 13//3
f 249//6 116//6 42//6
f 39//3 15//3 16//3
f 74//3 36//3 41//3
f 13//3 16//3 15//3
f 237//6 89//6 238//6
f 45//3 16//3 9//3
f 72//3 47//3 31//3
f 225//2 142//2 6//2
f 50//3 44//3 211//3
f 44//3 74//3 4//3
f 160//1 57//1 143//1
f 71//3 10//3 70//3
f 22//3 246//3 47//3
f 195//3 166//3 56//3
f 40//6 104//6 5//6
f 138//4 63//4 91//4
f 152//2 106//2 67//2
f 212//4 169//4 138//4
f 112//2 171//2 222//2
f 16//3 45//3 39//3
f 47//3 72//3 22//3
f 252//2 94//2 106//2
f 65//4 163//4 190//4
f 105//4 147//4 150//4
f 72//3 7//3 22//3
f 54//5 228//5 113//5
f 161//5 223//5 86//5
f 242//3 10//3 23//3
f 1//6 114//6 235//6
f 59//6 103//6 115//6
f 162//6 213//6 90//6
f 14//4 32//4 65//4
f 228//5 129//5 97//5
f 49//3 50//3 35//3
f 132//1 220//1 78//1
f 50//3 18//3 44//3
f 143//1 230//1 156//1
f 62//1 157//1 102//1
f 70//3 10//3 242//3
f 18//3 123//3 137//3
f 95//2 125//2 165//2
f 41//3 36//3 10//3
f 144//6 236//6 58//6
f 246//3 100//3 38//3
f 100//3 137//3 122//3
f 172//2 52//2 61//2
f 41//3 56//3 166//3
f 177//6 235//6 144//6
f 177//6 1//6 235//6
f 236//6 237//6 59//6
f 116//6 28//6 40//6
f 40//6 28//6 147//6
f 63//4 138//4 169//4
f 187//4 43//4 91//4
f 212//4 190//4 170//4
f 120//4 193//4 105//4
f 11//3 196//3 56//3
f 197//3 3//3 121//3
f 198//3 197//3 45//3
f 72//3 13//3 7//3
f 198//3 45//3 9//3
f 9//3 16//3 76//3
f 76//3 13//3 77//3
f 31//3 47//3 32//3
f 33//3 17//3 49//3
f 200//3 38//3 122//3
f 50//3 49//3 17//3
f 202//2 85//2 124//2
f 203//2 93//2 85//2
f 194//2 164//2 147//2
f 3//5 96//5 227//5
f 35//3 50//3 211//3
f 211//3 44//3 4//3
f 12//3 166//3 195//3
f 88//6 234//6 233//6
f 6//2 147//2 164//2
f 102//1 220//1 132//1
f 111//3 41//3 10//3
f 114//6 236//6 235//6
f 109//4 138//4 43//4
f 58//6 68//6 88//6
f 122//3 123//3 17//3
f 48//3 242//3 137//3
f 225//2 6//2 164//2
f 59//6 115//6 68//6
f 145//6 42//6 84//6
f 5//6 213//6 162//6
f 233//6 108//6 88//6
f 88//6 68//6 162//6
f 5//6 104//6 213//6
f 42//6 116//6 40//6
f 11//3 56//3 111//3
f 13//3 72//3 77//3
f 199//3 122//3 17//3
f 34//3 47//3 246//3
f 204//2 81//2 93//2
f 195//5 107//5 20//5
f 11//5 227//5 107//5
f 197//5 21//5 96//5
f 197//5 253//5 21//5
f 54//5 82//5 129//5
f 220//1 157//1 158//1
f 4//1 133//1 232//1
f 133//1 218//1 232//1
f 232//1 57//1 62//1
f 87//1 160//1 159//1
f 212//4 138//4 109//4
f 237//6 238//6 59//6
f 135//4 60//4 140//4
f 112//2 222//2 141//2
f 113//5 229//5 127//5
f 131//5 208//5 223//5
f 243//1 102//1 132//1
f 144//6 58//6 108//6
f 108//6 58//6 88//6
f 84//6 5//6 68//6
f 70//3 121//3 71//3
f 146//6 182//6 249//6
f 249//6 185//6 116//6
f 11//3 111//3 71//3
f 3//3 71//3 121//3
f 201//3 246//3 38//3
f 112//2 153//2 126//2
f 192//2 67//2 225//2
f 152//2 66//2 106//2
f 26//5 154//5 216//5
f 176//1 217//1 248//1
f 100//3 122//3 38//3
f 123//3 18//3 50//3
f 113//5 228//5 229//5
f 233//6 234//6 173//6
f 198//4 109//4 240//4
f 241//4 14//4 190//4
f 119//4 64//4 219//4
f 6//2 19//2 147//2
f 154//5 251//5 216//5
f 248//1 230//1 224//1
f 218//1 37//1 232//1
f 160//1 83//1 159//1
f 58//6 59//6 68//6
f 69//4 241//4 110//4
f 39//3 121//3 70//3
f 223//5 155//5 86//5
f 232//1 62//1 243//1
f 115//6 146//6 145//6
f 212//4 241//4 190//4
f 75//4 117//4 219//4
f 16//3 13//3 76//3
f 22//3 48//3 100//3
f 50//3 17//3 123//3
f 18//3 137//3 23//3
f 94//2 153//2 172//2
f 247//5 229//5 53//5
f 83//1 167//1 244//1
f 236//6 59//6 58//6
f 42//6 5//6 84//6
f 142//2 61//2 6//2
f 161//5 131//5 223//5
f 62//1 87//1 157//1
f 234//6 162//6 221//6
f 103//6 250//6 146//6
f 117//4 91//4 119//4
f 246//3 22//3 100//3
f 85//2 222//2 124//2
f 80//2 51//2 141//2
f 153//2 252//2 126//2
f 252//2 66//2 126//2
f 21//5 208//5 128//5
f 228//5 54//5 129//5
f 223//5 208//5 55//5
f 74//3 166//3 12//3
f 35//1 243//1 132//1
f 102//1 157//1 220//1
f 12//1 134//1 133//1
f 146//6 249//6 42//6
f 5//6 42//6 40//6
f 135//4 120//4 105//4
f 56//3 41//3 111//3
f 122//3 137//3 123//3
f 80//2 141//2 85//2
f 112//2 126//2 171//2
f 94//2 172//2 225//2
f 153//2 73//2 52//2
f 6//2 61//2 19//2
f 227//5 128//5 113//5
f 24//6 174//6 233//6
f 174//6 175//6 233//6
f 175//6 176//6 108//6
f 176//6 177//6 144//6
f 239//6 26//6 75//6
f 180//6 221//6 181//6
f 181//6 213//6 183//6
f 115//6 103//6 146//6
f 239//6 75//6 250//6
f 146//6 250//6 8//6
f 183//6 213//6 184//6
f 184//6 104//6 29//6
f 186//4 30//4 117//4
f 30//4 187//4 91//4
f 187//4 188//4 43//4
f 188//4 189//4 240//4
f 198//4 9//4 118//4
f 118//4 9//4 69//4
f 69//4 76//4 241//4
f 241//4 77//4 14//4
f 14//4 31//4 32//4
f 27//4 219//4 8//4
f 92//4 140//4 149//4
f 8//4 64//4 182//4
f 148//4 65//4 192//4
f 120//4 148//4 193//4
f 182//4 149//4 185//4
f 185//4 149//4 28//4
f 147//4 105//4 194//4
f 28//4 150//4 147//4
f 39//3 45//3 121//3
f 195//3 56//3 196//3
f 11//3 71//3 3//3
f 111//3 10//3 71//3
f 45//3 197//3 121//3
f 77//3 72//3 31//3
f 7//3 242//3 48//3
f 78//3 33//3 49//3
f 33//3 199//3 17//3
f 199//3 200//3 122//3
f 200//3 201//3 38//3
f 201//3 34//3 246//3
f 34//3 32//3 47//3
f 48//3 22//3 7//3
f 23//3 137//3 242//3
f 78//2 202//2 124//2
f 202//2 203//2 85//2
f 203//2 204//2 93//2
f 204//2 205//2 81//2
f 205//2 46//2 151//2
f 34//2 126//2 66//2
f 66//2 252//2 106//2
f 29//2 147//2 19//2
f 194//2 193//2 225//2
f 29//2 19//2 226//2
f 183//2 226//2 214//2
f 193//2 192//2 225//2
f 192//2 191//2 67//2
f 191//2 32//2 152//2
f 94//2 252//2 153//2
f 181//2 214//2 165//2
f 181//2 165//2 151//2
f 195//5 196//5 107//5
f 196//5 11//5 107//5
f 11//5 3//5 227//5
f 206//5 247//5 53//5
f 3//5 197//5 96//5
f 227//5 96//5 128//5
f 96//5 21//5 128//5
f 197//5 198//5 253//5
f 21//5 253//5 208//5
f 210//5 129//5 215//5
f 75//5 26//5 216//5
f 26//5 179//5 154//5
f 179//5 2//5 154//5
f 30//5 216//5 86//5
f 30//5 86//5 155//5
f 2//5 178//5 136//5
f 178//5 25//5 130//5
f 130//5 98//5 82//5
f 25//5 1//5 98//5
f 187//5 155//5 55//5
f 188//5 55//5 253//5
f 55//5 208//5 253//5
f 189//5 253//5 198//5
f 78//3 49//3 35//3
f 4//3 74//3 12//3
f 177//1 176//1 248//1
f 176//1 175//1 217//1
f 175//1 174//1 254//1
f 174//1 24//1 254//1
f 206//1 99//1 245//1
f 231//1 101//1 168//1
f 245//1 168//1 218//1
f 78//1 35//1 132//1
f 35//1 211//1 243//1
f 211//1 4//1 232//1
f 202//1 220//1 158//1
f 4//1 12//1 133//1
f 12//1 195//1 134//1
f 218//1 134//1 245//1
f 203//1 158//1 159//1
f 205//1 159//1 244//1
f 87//1 57//1 160//1
f 205//1 244//1 167//1
f 103//6 89//6 239//6
f 131//5 113//5 208//5
f 66//2 152//2 32//2
f 113//5 128//5 208//5
f 61//2 142//2 172//2
f 94//2 67//2 106//2
f 57//1 101//1 143//1
f 51//2 95//2 52//2
f 148//4 163//4 65//4
f 135//4 139//4 170//4
f 80//2 85//2 93//2
f 95//2 214//2 61//2
f 214//2 226//2 61//2
f 159//1 158//1 87//1
f 239//6 250//6 103//6
f 240//4 109//4 43//4
f 212//4 170//4 139//4
f 163//4 135//4 170//4
f 230//1 143//1 101//1
f 90//6 221//6 162//6
f 235//6 236//6 144//6
f 229//5 247//5 20//5
f 60//4 149//4 140//4
f 113//5 127//5 227//5
f 62//1 102//1 243//1
f 82//5 54//5 136//5
f 125//2 80//2 81//2
f 87//1 158//1 157//1
f 14//4 65//4 190//4
f 52//2 95//2 61//2
f 61//2 226//2 19//2
f 230//1 231//1 224//1
f 1//6 25//6 114//6
f 237//6 2//6 89//6
f 89//6 179//6 239//6
f 92//4 149//4 64//4
f 64//4 149//4 182//4
f 149//4 150//4 28//4
f 124//2 171//2 199//2
f 222//2 171//2 124//2
f 125//2 95//2 51//2
f 20//5 247//5 206//5
f 97//5 129//5 210//5
f 224//1 231//1 209//1
f 159//1 83//1 244//1
f 229//5 20//5 127//5
f 147//6 104//6 40//6
f 168//1 245//1 99//1
f 161//5 86//5 251//5
f 69//4 110//4 109//4
f 217//1 156//1 248//1
f 161//5 251//5 154//5
f 118//4 69//4 109//4
f 251//5 86//5 216//5
f 136//5 161//5 154//5
f 54//5 131//5 161//5
f 79//1 160//1 143//1
f 114//6 25//6 237//6
f 219//4 64//4 8//4
f 171//2 126//2 200//2
f 167//1 83//1 79//1
f 134//1 218//1 133//1
f 127//5 20//5 107//5
f 82//5 136//5 130//5
f 105//4 150//4 60//4
f 115//6 84//6 68//6
f 173//6 234//6 221//6
f 169//4 139//4 92//4
f 163//4 148//4 135//4
f 107//5 227//5 127//5
f 129//5 82//5 215//5
f 75//5 216//5 186//5
f 231//1 99//1 207//1
f 101//1 37//1 168//1
f 232//1 37//1 57//1
f 160//1 79//1 83//1
f 63//4 119//4 91//4
f 119//4 92//4 64//4
f 167//1 79//1 254//1
f 43//4 138//4 91//4
f 109//4 110//4 212//4
f 153//2 52//2 172//2
f 101//1 231//1 230//1
f 139//4 140//4 92//4
f 190//4 163//4 170//4
f 229//5 228//5 53//5
f 1//1 248//1 224//1
f 254//1 79//1 217//1
f 101//1 57//1 37//1
f 245//1 134//1 195//1
f 79//1 143//1 156//1
f 114//6 237//6 236//6
f 238//6 89//6 103//6
f 110//4 241//4 212//4
f 60//4 150//4 149//4
f 80//2 125//2 51//2
f 231//1 168//1 99//1
f 145//6 146//6 42//6
f 139//4 135//4 140//4
f 135//4 148//4 120//4
f 135//4 105//4 60//4
f 85//2 141//2 222//2
f 141//2 51//2 73//2
f 141//2 73//2 112//2
f 73//2 153//2 112//2
f 225//2 172//2 142//2
f 113//5 131//5 54//5
f 53//5 228//5 97//5
f 53//5 97//5 207//5
f 136//5 54//5 161//5
f 46//6 24//6 173//6
f 173//6 24//6 233//6
f 233//6 175//6 108//6
f 108//6 176//6 144//6
f 237//6 25//6 178//6
f 237//6 178//6 2//6
f 59//6 238//6 103//6
f 89//6 2//6 179//6
f 239//6 179//6 26//6
f 46//6 173//6 221//6
f 46//6 221//6 180//6
f 234//6 88//6 162//6
f 162//6 68//6 5//6
f 221//6 90//6 181//6
f 90//6 213//6 181//6
f 84//6 115//6 145//6
f 250//6 75//6 27//6
f 250//6 27//6 8//6
f 146//6 8//6 182//6
f 213//6 104//6 184//6
f 249//6 182//6 185//6
f 116//6 185//6 28//6
f 104//6 147//6 29//6
f 75//4 186//4 117//4
f 117//4 30//4 91//4
f 119//4 63//4 92//4
f 139//4 169//4 212//4
f 43//4 188//4 240//4
f 240//4 189//4 198//4
f 109//4 198//4 118//4
f 69//4 9//4 76//4
f 241//4 76//4 77//4
f 14//4 77//4 31//4
f 75//4 219//4 27//4
f 117//4 119//4 219//4
f 65//4 32//4 191//4
f 65//4 191//4 192//4
f 148//4 192//4 193//4
f 105//4 193//4 194//4
f 78//2 124//2 33//2
f 33//2 124//2 199//2
f 199//2 171//2 200//2
f 93//2 81//2 80//2
f 205//2 151//2 81//2
f 200//2 126//2 201//2
f 201//2 126//2 34//2
f 34//2 66//2 32//2
f 194//2 225//2 164//2
f 29//2 226//2 184//2
f 184//2 226//2 183//2
f 191//2 152//2 67//2
f 183//2 214//2 181//2
f 214//2 95//2 165//2
f 181//2 151//2 180//2
f 165//2 125//2 151//2
f 125//2 81//2 151//2
f 180//2 151//2 46//2
f 195//5 20//5 206//5
f 206//5 53//5 207//5
f 207//5 97//5 209//5
f 209//5 97//5 210//5
f 210//5 215//5 1//5
f 186//5 216//5 30//5
f 2//5 136//5 154//5
f 30//5 155//5 187//5
f 178//5 130//5 136//5
f 25//5 98//5 130//5
f 1//5 215//5 98//5
f 155//5 223//5 55//5
f 187//5 55//5 188//5
f 188//5 253//5 189//5
f 177//1 248//1 1//1
f 1//1 224//1 210//1
f 248//1 156//1 230//1
f 210//1 224//1 209//1
f 209//1 231//1 207//1
f 175//1 254//1 217//1
f 24//1 167//1 254//1
f 24//1 46//1 167//1
f 207//1 99//1 206//1
f 206//1 245//1 195//1
f 78//1 220//1 202//1
f 211//1 232//1 243//1
f 202//1 158//1 203//1
f 218//1 168//1 37//1
f 203//1 159//1 204//1
f 204//1 159//1 205//1
f 205//1 167//1 46//1
